<svg id="svg-comp" width="100%" height="100%" viewBox="0 0 500 500" fill="none" preserveAspectRatio="none" xmlns="http://www.w3.org/2000/svg" class="transition" style="border-radius: 0%; transform: scale(1) rotate(107deg);"><defs><mask id="globeOuterOnly"><path d="M385.942 261.001C405.891 261.001 415.881 236.881 401.775 222.775L305.65 126.65C274.915 95.9152 225.085 95.9152 194.35 126.65L98.225 222.775C84.119 236.881 94.1094 261.001 114.058 261.001C119.997 261.001 125.692 258.641 129.892 254.442L182.825 201.509C219.925 164.409 280.076 164.409 317.175 201.509L370.108 254.442C374.308 258.641 380.003 261.001 385.942 261.001Z" fill="black" stroke="black" stroke-width="0"></path><path d="M385.942 345.445C405.891 345.445 415.881 321.326 401.775 307.22L305.65 211.095C274.915 180.36 225.085 180.36 194.35 211.095L98.225 307.22C84.119 321.326 94.1094 345.445 114.058 345.445C119.997 345.445 125.692 343.086 129.892 338.887L182.825 285.954C219.925 248.854 280.076 248.854 317.175 285.954L370.108 338.887C374.308 343.086 380.003 345.445 385.942 345.445Z" fill="black" stroke="black" stroke-width="0"></path><path d="M385.942 429.89C405.891 429.89 415.881 405.771 401.775 391.665L305.65 295.54C274.915 264.805 225.085 264.805 194.35 295.54L98.225 391.665C84.119 405.771 94.1094 429.89 114.058 429.89C119.997 429.89 125.692 427.531 129.892 423.332L182.825 370.399C219.925 333.298 280.076 333.299 317.175 370.399L370.108 423.332C374.308 427.531 380.003 429.89 385.942 429.89Z" fill="black" stroke="black" stroke-width="0"></path></mask></defs><path d="M385.942 261.001C405.891 261.001 415.881 236.881 401.775 222.775L305.65 126.65C274.915 95.9152 225.085 95.9152 194.35 126.65L98.225 222.775C84.119 236.881 94.1094 261.001 114.058 261.001C119.997 261.001 125.692 258.641 129.892 254.442L182.825 201.509C219.925 164.409 280.076 164.409 317.175 201.509L370.108 254.442C374.308 258.641 380.003 261.001 385.942 261.001Z" fill="black" stroke="black" stroke-width="0"></path><path d="M385.942 345.445C405.891 345.445 415.881 321.326 401.775 307.22L305.65 211.095C274.915 180.36 225.085 180.36 194.35 211.095L98.225 307.22C84.119 321.326 94.1094 345.445 114.058 345.445C119.997 345.445 125.692 343.086 129.892 338.887L182.825 285.954C219.925 248.854 280.076 248.854 317.175 285.954L370.108 338.887C374.308 343.086 380.003 345.445 385.942 345.445Z" fill="black" stroke="black" stroke-width="0"></path><path d="M385.942 429.89C405.891 429.89 415.881 405.771 401.775 391.665L305.65 295.54C274.915 264.805 225.085 264.805 194.35 295.54L98.225 391.665C84.119 405.771 94.1094 429.89 114.058 429.89C119.997 429.89 125.692 427.531 129.892 423.332L182.825 370.399C219.925 333.298 280.076 333.299 317.175 370.399L370.108 423.332C374.308 427.531 380.003 429.89 385.942 429.89Z" fill="black" stroke="black" stroke-width="0"></path></svg>